<svg width="28" height="28" viewBox="0 0 28 28" fill="none" xmlns="http://www.w3.org/2000/svg">
<path d="M11.1429 14L12.4762 12.6666C12.5905 12.5523 12.6476 12.4127 12.6476 12.2476C12.6476 12.0825 12.5905 11.9428 12.4762 11.8285C12.3619 11.7143 12.2222 11.6571 12.0572 11.6571C11.8921 11.6571 11.7524 11.7143 11.6381 11.8285L9.86669 13.6C9.8032 13.6635 9.75876 13.7269 9.73336 13.7904C9.70796 13.8539 9.69526 13.9238 9.69526 14C9.69526 14.0762 9.70796 14.146 9.73336 14.2095C9.75876 14.273 9.8032 14.3365 9.86669 14.4L11.6572 16.1904C11.7715 16.3047 11.9111 16.3619 12.0762 16.3619C12.2413 16.3619 12.381 16.3047 12.4953 16.1904C12.6095 16.0762 12.6667 15.9365 12.6667 15.7714C12.6667 15.6063 12.6095 15.4666 12.4953 15.3523L11.1429 14ZM16.8572 14L15.5048 15.3523C15.3905 15.4666 15.3334 15.6063 15.3334 15.7714C15.3334 15.9365 15.3905 16.0762 15.5048 16.1904C15.6191 16.3047 15.7588 16.3619 15.9238 16.3619C16.0889 16.3619 16.2286 16.3047 16.3429 16.1904L18.1334 14.4C18.1969 14.3365 18.2413 14.273 18.2667 14.2095C18.2921 14.146 18.3048 14.0762 18.3048 14C18.3048 13.9238 18.2921 13.8539 18.2667 13.7904C18.2413 13.7269 18.1969 13.6635 18.1334 13.6L16.3429 11.8095C16.2921 11.746 16.2286 11.7016 16.1524 11.6762C16.0762 11.6508 16 11.6381 15.9238 11.6381C15.8476 11.6381 15.7746 11.6508 15.7048 11.6762C15.6349 11.7016 15.5683 11.746 15.5048 11.8095C15.3905 11.9238 15.3334 12.0635 15.3334 12.2285C15.3334 12.3936 15.3905 12.5333 15.5048 12.6476L16.8572 14ZM8.28574 20.8571C7.98098 20.8571 7.71431 20.7428 7.48574 20.5143C7.25717 20.2857 7.14288 20.019 7.14288 19.7143V8.28568C7.14288 7.98092 7.25717 7.71425 7.48574 7.48568C7.71431 7.25711 7.98098 7.14282 8.28574 7.14282H19.7143C20.0191 7.14282 20.2857 7.25711 20.5143 7.48568C20.7429 7.71425 20.8572 7.98092 20.8572 8.28568V19.7143C20.8572 20.019 20.7429 20.2857 20.5143 20.5143C20.2857 20.7428 20.0191 20.8571 19.7143 20.8571H8.28574ZM8.28574 19.7143H19.7143V8.28568H8.28574V19.7143Z" fill="#8D97A5"/>
</svg>
