<svg width="16" height="12" viewBox="0 0 16 12" fill="none" xmlns="http://www.w3.org/2000/svg">
<path d="M9.97188 1.74708C10.0777 1.39442 9.87755 1.02276 9.52489 0.916963C9.17223 0.811165 8.80058 1.01129 8.69478 1.36395L6.02811 10.2528C5.92231 10.6055 6.12243 10.9772 6.4751 11.083C6.82776 11.1888 7.19941 10.9886 7.30521 10.636L9.97188 1.74708Z" fill="black"/>
<path d="M3.98237 2.8212C3.69951 2.58549 3.27914 2.62371 3.04343 2.90656L0.821206 5.57322C0.615181 5.82045 0.615181 6.17957 0.821206 6.4268L3.04343 9.09347C3.27914 9.37632 3.69951 9.41454 3.98237 9.17883C4.26522 8.94312 4.30343 8.52274 4.06772 8.23989L2.20116 6.00001L4.06772 3.76014C4.30343 3.47728 4.26522 3.05691 3.98237 2.8212Z" fill="black"/>
<path d="M12.0177 2.8212C12.3005 2.58549 12.7209 2.62371 12.9566 2.90656L15.1788 5.57322C15.3849 5.82045 15.3849 6.17957 15.1788 6.4268L12.9566 9.09347C12.7209 9.37632 12.3005 9.41454 12.0177 9.17883C11.7348 8.94312 11.6966 8.52274 11.9323 8.23989L13.7989 6.00001L11.9323 3.76014C11.6966 3.47728 11.7348 3.05691 12.0177 2.8212Z" fill="black"/>
</svg>
