<svg width="28" height="28" viewBox="0 0 28 28" fill="none" xmlns="http://www.w3.org/2000/svg">
<path d="M15.9719 9.74708C16.0777 9.39442 15.8776 9.02276 15.5249 8.91696C15.1722 8.81116 14.8006 9.01129 14.6948 9.36395L12.0281 18.2528C11.9223 18.6055 12.1224 18.9772 12.4751 19.083C12.8278 19.1888 13.1994 18.9886 13.3052 18.636L15.9719 9.74708Z" fill="#8D97A5"/>
<path d="M9.98237 10.8212C9.69951 10.5855 9.27914 10.6237 9.04343 10.9066L6.82121 13.5732C6.61518 13.8205 6.61518 14.1796 6.82121 14.4268L9.04343 17.0935C9.27914 17.3763 9.69951 17.4145 9.98237 17.1788C10.2652 16.9431 10.3034 16.5227 10.0677 16.2399L8.20116 14L10.0677 11.7601C10.3034 11.4773 10.2652 11.0569 9.98237 10.8212Z" fill="#8D97A5"/>
<path d="M18.0177 10.8212C18.3005 10.5855 18.7209 10.6237 18.9566 10.9066L21.1788 13.5732C21.3849 13.8205 21.3849 14.1796 21.1788 14.4268L18.9566 17.0935C18.7209 17.3763 18.3005 17.4145 18.0177 17.1788C17.7348 16.9431 17.6966 16.5227 17.9323 16.2399L19.7989 14L17.9323 11.7601C17.6966 11.4773 17.7348 11.0569 18.0177 10.8212Z" fill="#8D97A5"/>
</svg>
