<?xml version="1.0" encoding="UTF-8" standalone="no"?>
<svg
   width="18"
   height="18"
   viewBox="0 0 18 18"
   fill="none"
   version="1.1"
   id="svg888"
   sodipodi:docname="undo.svg"
   inkscape:version="1.1.1 (3bf5ae0d25, 2021-09-20)"
   xmlns:inkscape="http://www.inkscape.org/namespaces/inkscape"
   xmlns:sodipodi="http://sodipodi.sourceforge.net/DTD/sodipodi-0.dtd"
   xmlns="http://www.w3.org/2000/svg"
   xmlns:svg="http://www.w3.org/2000/svg">
  <defs
     id="defs892" />
  <sodipodi:namedview
     id="namedview890"
     pagecolor="#ffffff"
     bordercolor="#666666"
     borderopacity="1.0"
     inkscape:pageshadow="2"
     inkscape:pageopacity="0.0"
     inkscape:pagecheckerboard="0"
     showgrid="false"
     inkscape:zoom="7.8983827"
     inkscape:cx="17.598539"
     inkscape:cy="26.904242"
     inkscape:window-width="1247"
     inkscape:window-height="792"
     inkscape:window-x="665"
     inkscape:window-y="151"
     inkscape:window-maximized="0"
     inkscape:current-layer="svg888" />
  <path
     id="path1098"
     style="color:#000000;fill:#000000;-inkscape-stroke:none"
     d="M 9.453125 0 L 6.3164062 2.8339844 L 9.453125 5.6699219 L 9.453125 3.9042969 C 12.524864 3.9063956 14.992187 6.3769661 14.992188 9.4492188 C 14.992186 12.522777 12.522777 14.992187 9.4492188 14.992188 C 6.3756601 14.992186 3.9042969 12.522777 3.9042969 9.4492188 C 3.9042969 9.285788 3.9140404 9.124588 3.9277344 8.9648438 L 1.921875 8.9648438 C 1.9116008 9.1252883 1.9042969 9.2862648 1.9042969 9.4492188 C 1.9042969 13.603656 5.2947811 16.992188 9.4492188 16.992188 C 13.603656 16.992188 16.992188 13.603656 16.992188 9.4492188 C 16.992188 5.2960916 13.605768 1.906435 9.453125 1.9042969 L 9.453125 0 z " />
</svg>
