<?xml version="1.0" encoding="UTF-8" standalone="no"?>
<svg
   width="18"
   height="18"
   viewBox="0 0 18 18"
   fill="none"
   version="1.1"
   id="svg888"
   sodipodi:docname="redo.svg"
   inkscape:version="1.1.1 (3bf5ae0d25, 2021-09-20)"
   xmlns:inkscape="http://www.inkscape.org/namespaces/inkscape"
   xmlns:sodipodi="http://sodipodi.sourceforge.net/DTD/sodipodi-0.dtd"
   xmlns="http://www.w3.org/2000/svg"
   xmlns:svg="http://www.w3.org/2000/svg">
  <defs
     id="defs892" />
  <sodipodi:namedview
     id="namedview890"
     pagecolor="#ffffff"
     bordercolor="#666666"
     borderopacity="1.0"
     inkscape:pageshadow="2"
     inkscape:pageopacity="0.0"
     inkscape:pagecheckerboard="0"
     showgrid="false"
     inkscape:zoom="7.8983827"
     inkscape:cx="17.598539"
     inkscape:cy="26.904242"
     inkscape:window-width="1247"
     inkscape:window-height="792"
     inkscape:window-x="665"
     inkscape:window-y="151"
     inkscape:window-maximized="0"
     inkscape:current-layer="svg888" />
  <path
     id="path1098"
     style="color:#000000;fill:#000000;-inkscape-stroke:none"
     d="M 9.4433599,0 12.580079,2.8339844 9.4433599,5.6699219 v -1.765625 c -3.071739,0.0021 -5.539062,2.4726692 -5.539063,5.5449219 2e-6,3.0735582 2.469411,5.5429682 5.5429692,5.5429692 3.0735589,-2e-6 5.5449219,-2.469411 5.5449219,-5.5429692 0,-0.1634308 -0.0097,-0.3246308 -0.02344,-0.484375 h 2.00586 c 0.01027,0.1604445 0.01758,0.321421 0.01758,0.484375 0,4.1544372 -3.390484,7.5429692 -7.5449219,7.5429692 -4.1544372,0 -7.5429692,-3.388532 -7.5429692,-7.5429692 0,-4.1531272 3.38642,-7.5427838 7.539063,-7.5449219 z" />
</svg>
